# xmcd CD database file
#
# Track frame offsets:
#	150
#	12625
#	29818
#	50340
#	69758
#	87040
#	104093
#	123975
#	145063
#	163618
#
# Disc length: 2440 seconds
#
# Revision: 0
# Processed by: cddbd v1.5PL3 Copyright (c) Steve Scherf et al.
# Submitted via: CDex 1.50
#
DISCID=8509860a
DTITLE=守谷香 - 地図のない街
DYEAR=1987
DGENRE=JPop
TTITLE0=プレリュード
TTITLE1=飛べないメリー・ポピンズ
TTITLE2=赤ずきんちゃん気をつけて
TTITLE3=ダーリン教えて
TTITLE4=予告編（New Mix）
TTITLE5=パンドラの函
TTITLE6=恋を止めないで
TTITLE7=帰らない
TTITLE8=23時のエチュード
TTITLE9=南風のテラス
EXTD=YEAR: 1987/07/21
EXTT0=
EXTT1=
EXTT2=
EXTT3=
EXTT4=
EXTT5=
EXTT6=
EXTT7=
EXTT8=
EXTT9=
PLAYORDER=
